# xmcd
#
# Track frame offsets: 
#        150
#        14888
#        34576
#        52501
#        68438
#        82275
#        102713
#        125588
#        142127
#        163074
#
# Disc length: 2717 seconds
#
# Revision: 0
# Processed by: cddbd v1.5.2PL0 Copyright (c) Steve Scherf et al.
# Submitted via: ExactAudioCopy v1.3
#
DISCID=8d0a9b0a
DTITLE=Professor Louie and the Crowmatix - Miles of Blues
DYEAR=2019
DGENRE=Blues
TTITLE0=L-50 Blues
TTITLE1=Funky Steampunk Blues
TTITLE2=Love Bound
TTITLE3=Passion in My Life
TTITLE4=Exit Zero
TTITLE5=Rain 40 Days
TTITLE6=Please Send Someone to Love
TTITLE7=Orange Juice Blues
TTITLE8=Oh My Lady
TTITLE9=Bull Frog Jam Blues
EXTD=
EXTT0=
EXTT1=
EXTT2=
EXTT3=
EXTT4=
EXTT5=
EXTT6=
EXTT7=
EXTT8=
EXTT9=
PLAYORDER=
